# File created by Blade
# Date/Time:  Tue Jan 27 18:50:05 2015
# Frame Rate: 120.000 fps
#------------------------------------------------------
:FULLY-SPECIFIED
:DEGREES
2337
root -1.181176 32.108008 -7.739723 11.889475 -19.628895 -16.198369
Spine 8.489808 8.268430 -0.107714
Head 0.651252 -31.402211 13.985201
LeftShoulder -11.632633 9.713773 19.645611
LeftArm 34.296313 -5.943962 -69.952923
LeftForeArm -43.866909 -0.000000 136.939984
LeftHand -9.315684 0.000000 -23.394299
LeftHandThumb1 -26.253704 0.000000 33.147579
RightShoulder 4.232428 21.437674 -11.679353
RightArm 44.095696 -65.611021 74.230600
RightForeArm -12.837180 -0.000000 65.831420
RightHand -11.176196 -0.000000 0.341019
RightHandThumb1 -24.326973 -0.000000 -32.862282
LeftUpLeg -15.295462 3.848126 6.122090
LeftLeg 26.434965 -0.000000 -0.000000
LeftFoot -32.681975 22.676441 -24.767727
LeftToeBase 5.059298 -0.000000 -0.000000
RightUpLeg -56.599386 -33.597182 -0.880664
RightLeg 75.078964 -0.000000 -0.000000
RightFoot -17.671242 -24.882396 19.152788
RightToeBase 14.893655 -0.000000 -0.000000
2338
root -1.152026 32.088030 -7.709136 11.737246 -19.958572 -16.125700
Spine 8.687320 8.156096 0.001722
Head 0.798844 -31.086898 13.906218
LeftShoulder -11.703919 9.787446 19.697437
LeftArm 34.466007 -5.481169 -69.493794
LeftForeArm -45.170012 0.000000 136.938188
LeftHand -8.953223 -0.000000 -23.905305
LeftHandThumb1 -26.253704 0.000000 33.147579
RightShoulder 4.225772 21.297074 -11.723676
RightArm 43.909324 -65.724275 74.382165
RightForeArm -12.885760 -0.000000 65.903581
RightHand -10.860086 0.000000 0.421494
RightHandThumb1 -24.326973 -0.000000 -32.862282
LeftUpLeg -15.159130 3.954223 5.922733
LeftLeg 26.612592 -0.000000 -0.000000
LeftFoot -32.821868 22.875097 -24.716613
LeftToeBase 5.076117 -0.000000 -0.000000
RightUpLeg -56.729644 -33.301844 -0.768134
RightLeg 75.062009 -0.000000 -0.000000
RightFoot -17.659209 -24.899151 19.125363
RightToeBase 14.949511 -0.000000 -0.000000
2339
root -1.124008 32.068273 -7.682759 11.631872 -20.321649 -16.097891
Spine 8.859331 8.099261 0.142792
Head 0.947038 -30.843870 13.839584
LeftShoulder -11.732146 9.868618 19.746841
LeftArm 34.615658 -5.013173 -68.980046
LeftForeArm -46.354287 0.000000 136.971436
LeftHand -8.484100 -0.000000 -23.947304
LeftHandThumb1 -26.253704 0.000000 33.147579
RightShoulder 4.157060 21.166578 -11.734401
RightArm 43.607071 -65.799952 74.651290
RightForeArm -13.163067 -0.000000 65.973970
RightHand -10.614551 -0.000000 0.815278
RightHandThumb1 -24.326973 -0.000000 -32.862282
LeftUpLeg -15.066113 4.071452 5.773639
LeftLeg 26.822507 -0.000000 -0.000000
LeftFoot -32.965807 23.088239 -24.605760
LeftToeBase 5.085677 -0.000000 -0.000000
RightUpLeg -56.891523 -32.987571 -0.552406
RightLeg 75.007659 -0.000000 -0.000000
RightFoot -17.696738 -24.842503 19.293486
RightToeBase 15.081515 -0.000000 -0.000000
2340
root -1.085909 32.044635 -7.658871 11.480863 -20.603933 -16.016201
Spine 9.094926 7.892699 0.278887
Head 1.063644 -30.540467 13.745502
LeftShoulder -11.780171 9.910051 19.728372
LeftArm 34.786700 -4.707289 -68.517768
LeftForeArm -47.327404 -0.000000 137.036256
LeftHand -8.316864 -0.000000 -24.286153
LeftHandThumb1 -26.253704 0.000000 33.147579
RightShoulder 4.174005 21.146420 -11.766881
RightArm 43.040061 -65.865328 75.155689
RightForeArm -13.237561 -0.000000 66.083335
RightHand -10.450456 -0.000000 0.913129
RightHandThumb1 -24.326973 -0.000000 -32.862282
LeftUpLeg -14.984247 4.016047 5.563794
LeftLeg 27.050711 -0.000000 -0.000000
LeftFoot -33.166364 23.375104 -24.631987
LeftToeBase 5.115570 -0.000000 -0.000000
RightUpLeg -57.025784 -32.829419 -0.374937
RightLeg 74.959249 -0.000000 -0.000000
RightFoot -17.500891 -24.633566 19.249084
RightToeBase 14.730425 -0.000000 -0.000000
2341
root -1.065022 32.020201 -7.628675 11.394170 -21.002390 -16.005801
Spine 9.236610 7.815894 0.397556
Head 1.237701 -30.271342 13.701914
LeftShoulder -11.835682 10.026399 19.794418
LeftArm 34.891642 -4.379364 -68.120941
LeftForeArm -47.998230 -0.000000 137.110882
LeftHand -8.073249 -0.000000 -24.648869
LeftHandThumb1 -26.253704 0.000000 33.147579
RightShoulder 4.144255 21.019736 -11.701628
RightArm 42.448216 -65.904844 75.730753
RightForeArm -13.395397 -0.000000 66.191356
RightHand -10.291240 -0.000000 1.183219
RightHandThumb1 -24.326973 -0.000000 -32.862282
LeftUpLeg -14.888547 4.191431 5.413718
LeftLeg 27.281686 -0.000000 -0.000000
LeftFoot -33.453583 23.553935 -24.672908
LeftToeBase 5.298031 -0.000000 -0.000000
RightUpLeg -57.177078 -32.512797 -0.093833
RightLeg 74.911169 -0.000000 -0.000000
RightFoot -17.348085 -24.508049 19.181636
RightToeBase 14.939792 -0.000000 -0.000000
2342
root -1.027313 31.992727 -7.598822 11.249281 -21.271758 -15.896213
Spine 9.445161 7.544110 0.499807
Head 1.367226 -29.937282 13.598436
LeftShoulder -11.933263 10.131189 19.789137
LeftArm 35.098075 -4.099628 -67.866833
LeftForeArm -48.456006 0.000000 137.137447
LeftHand -8.283895 0.000000 -25.009967
LeftHandThumb1 -26.253704 0.000000 33.147579
RightShoulder 4.171305 20.905064 -11.688898
RightArm 42.024275 -65.929877 76.106398
RightForeArm -13.551159 -0.000000 66.356267
RightHand -10.252069 0.000000 1.433772
RightHandThumb1 -24.326973 -0.000000 -32.862282
LeftUpLeg -14.775703 4.028687 5.202487
LeftLeg 27.447471 -0.000000 -0.000000
LeftFoot -33.675085 23.846488 -24.641121
LeftToeBase 5.435976 -0.000000 -0.000000
RightUpLeg -57.287257 -32.417424 0.108918
RightLeg 74.834427 -0.000000 -0.000000
RightFoot -17.209792 -24.206452 19.246674
RightToeBase 15.206081 -0.000000 -0.000000
2343
root -0.993664 31.967679 -7.572800 11.145545 -21.560330 -15.816653
Spine 9.582912 7.265248 0.584331
Head 1.657179 -29.591736 13.486717
LeftShoulder -12.032449 10.348794 19.826907
LeftArm 35.306730 -3.803247 -67.568102
LeftForeArm -48.855554 -0.000000 137.021725
LeftHand -8.057961 0.000000 -25.150265
LeftHandThumb1 -26.253704 0.000000 33.147579
RightShoulder 4.262056 20.735898 -11.593941
RightArm 41.515882 -65.874966 76.571724
RightForeArm -13.635761 -0.000000 66.459610
RightHand -10.042413 -0.000000 1.628654
RightHandThumb1 -24.326973 -0.000000 -32.862282
LeftUpLeg -14.720958 3.960204 5.009198
LeftLeg 27.660897 -0.000000 -0.000000
LeftFoot -33.904970 24.062176 -24.733124
LeftToeBase 5.509406 -0.000000 -0.000000
RightUpLeg -57.388732 -32.270235 0.357669
RightLeg 74.733948 -0.000000 -0.000000
RightFoot -16.986437 -23.983977 19.268090
RightToeBase 15.187735 -0.000000 -0.000000
2344
root -0.958848 31.940854 -7.547451 11.026860 -21.897649 -15.730101
Spine 9.762146 7.180928 0.686229
Head 1.866385 -29.457133 13.393544
LeftShoulder -11.949720 10.361202 19.873079
LeftArm 35.337859 -3.527119 -67.233526
LeftForeArm -49.266965 -0.000000 136.979291
LeftHand -8.125209 -0.000000 -25.219305
LeftHandThumb1 -26.253704 0.000000 33.147579
RightShoulder 4.215276 20.691798 -11.571534
RightArm 40.521797 -65.775100 77.550572
RightForeArm -13.887578 -0.000000 66.535460
RightHand -9.902660 -0.000000 2.012285
RightHandThumb1 -24.326973 -0.000000 -32.862282
LeftUpLeg -14.642145 3.954455 4.814299
LeftLeg 27.869359 -0.000000 -0.000000
LeftFoot -34.139328 24.169386 -24.807652
LeftToeBase 5.520594 -0.000000 -0.000000
RightUpLeg -57.462121 -32.084112 0.574358
RightLeg 74.635909 -0.000000 -0.000000
RightFoot -16.463782 -23.711009 18.954529
RightToeBase 14.318664 -0.000000 -0.000000
2345
root -0.926003 31.915184 -7.521692 10.917083 -22.207243 -15.642307
Spine 9.902743 7.153366 0.783506
Head 2.153220 -29.361131 13.307633
LeftShoulder -11.746513 10.406517 19.943182
LeftArm 35.384527 -3.279689 -66.973652
LeftForeArm -49.641088 -0.000000 136.924600
LeftHand -8.366701 0.000000 -25.193474
LeftHandThumb1 -26.253704 0.000000 33.147579
RightShoulder 4.089869 20.364456 -11.570190
RightArm 40.298803 -65.656513 77.726931
RightForeArm -13.969541 -0.000000 66.666444
RightHand -9.971937 -0.000000 1.861782
RightHandThumb1 -24.326973 -0.000000 -32.862282
LeftUpLeg -14.567669 3.991453 4.620069
LeftLeg 28.051928 -0.000000 -0.000000
LeftFoot -34.327720 24.273536 -24.878970
LeftToeBase 5.591681 -0.000000 -0.000000
RightUpLeg -57.502985 -31.908633 0.790389
RightLeg 74.515481 -0.000000 -0.000000
RightFoot -16.171598 -23.385834 18.936686
RightToeBase 14.406433 -0.000000 -0.000000
2346
root -0.891876 31.890935 -7.490632 10.833067 -22.513571 -15.534755
Spine 10.014129 6.977675 0.872574
Head 2.444720 -29.174217 13.114318
LeftShoulder -11.726033 10.477351 19.873641
LeftArm 35.414238 -3.111146 -66.681166
LeftForeArm -50.029933 -0.000000 136.826335
LeftHand -8.468854 -0.000000 -25.315077
LeftHandThumb1 -26.253704 0.000000 33.147579
RightShoulder 4.064308 20.174887 -11.551283
RightArm 40.102476 -65.699876 77.898300
RightForeArm -14.246862 -0.000000 66.667784
RightHand -10.025915 -0.000000 1.306058
RightHandThumb1 -24.326973 -0.000000 -32.862282
LeftUpLeg -14.493640 4.049337 4.402242
LeftLeg 28.182624 -0.000000 -0.000000
LeftFoot -34.518869 24.329183 -24.990127
LeftToeBase 5.600088 -0.000000 -0.000000
RightUpLeg -57.533380 -31.778349 0.993935
RightLeg 74.395244 -0.000000 -0.000000
RightFoot -15.752564 -23.005113 18.632916
RightToeBase 14.289642 -0.000000 -0.000000
2347
root -0.859659 31.869421 -7.459562 10.758525 -22.800179 -15.429241
Spine 10.106564 6.781763 0.925653
Head 2.784003 -28.953945 12.959694
LeftShoulder -11.751354 10.584026 19.831861
LeftArm 35.500711 -2.916428 -66.507257
LeftForeArm -50.128803 0.000000 136.702865
LeftHand -8.537273 -0.000000 -25.472405
LeftHandThumb1 -26.253704 0.000000 33.147579
RightShoulder 4.072456 19.666849 -11.504727
RightArm 40.442117 -65.545816 77.555129
RightForeArm -14.293870 0.000000 66.733604
RightHand -9.956289 -0.000000 1.240595
RightHandThumb1 -24.326973 -0.000000 -32.862282
LeftUpLeg -14.422038 4.193076 4.183995
LeftLeg 28.286008 -0.000000 -0.000000
LeftFoot -34.695910 24.293716 -25.148337
LeftToeBase 5.586387 -0.000000 -0.000000
RightUpLeg -57.544992 -31.650921 1.202193
RightLeg 74.241386 -0.000000 -0.000000
RightFoot -15.279933 -22.750883 18.255590
RightToeBase 14.228052 -0.000000 -0.000000
2348
root -0.822244 31.846268 -7.429663 10.692243 -23.099548 -15.288677
Spine 10.152997 6.637277 0.935122
Head 3.217204 -28.810691 12.871240
LeftShoulder -11.672200 10.646139 19.865462
LeftArm 35.491968 -2.774147 -66.466855
LeftForeArm -50.526620 -0.000000 136.566143
LeftHand -8.789454 -0.000000 -25.621607
LeftHandThumb1 -26.253704 0.000000 33.147579
RightShoulder 3.937659 19.630736 -11.457730
RightArm 40.003872 -65.562555 77.921780
RightForeArm -14.053896 -0.000000 66.726693
RightHand -9.926349 0.000000 1.078004
RightHandThumb1 -24.326973 -0.000000 -32.862282
LeftUpLeg -14.371131 4.380945 3.926563
LeftLeg 28.376299 -0.000000 -0.000000
LeftFoot -34.815976 24.250846 -25.183642
LeftToeBase 5.515949 -0.000000 -0.000000
RightUpLeg -57.569534 -31.537841 1.376463
RightLeg 74.104215 -0.000000 -0.000000
RightFoot -14.788279 -22.497668 17.835929
RightToeBase 14.260833 -0.000000 -0.000000
2349
root -0.786036 31.827633 -7.400976 10.666273 -23.397113 -15.168864
Spine 10.167909 6.458929 0.951957
Head 3.660496 -28.612582 12.745025
LeftShoulder -11.657998 10.689354 19.834200
LeftArm 35.477220 -2.640055 -66.448540
LeftForeArm -50.614845 -0.000000 136.434578
LeftHand -9.033902 -0.000000 -25.556849
LeftHandThumb1 -26.253704 0.000000 33.147579
RightShoulder 3.901900 19.617451 -11.414855
RightArm 39.535369 -65.562150 78.326573
RightForeArm -13.896979 -0.000000 66.726083
RightHand -9.971213 -0.000000 0.859236
RightHandThumb1 -24.326973 -0.000000 -32.862282
LeftUpLeg -14.340994 4.656008 3.693446
LeftLeg 28.436050 -0.000000 -0.000000
LeftFoot -34.893830 24.137016 -25.192640
LeftToeBase 5.545905 -0.000000 -0.000000
RightUpLeg -57.566533 -31.401004 1.574659
RightLeg 73.890789 -0.000000 -0.000000
RightFoot -14.326350 -22.368938 17.378337
RightToeBase 14.485403 -0.000000 -0.000000
